M48
;Layer_Color=9474304
;FILE_FORMAT=2:5
INCH,LZ
;TYPE=PLATED
T1F00S00C0.01968
T2F00S00C0.06299
T3F00S00C0.11811
%
T01
X02Y00205
X0204
X0208
X0212
X01925Y0028
X00095Y01565
X00055
Y017
X00095
X0006Y0177
X00485Y0161
Y0154
X0066Y01525
Y0156
Y01595
Y0163
Y01665
Y017
Y01735
Y0177
Y01805
X00695
Y0177
Y01735
Y017
Y01665
Y0163
Y01595
Y0156
Y01525
Y0149
X0066
Y01455
Y0142
X00695
Y01455
X0073
Y0142
X00765
Y01455
Y0149
X0073
Y01525
Y0156
Y01595
Y0163
Y01665
Y017
Y01735
Y0177
Y01805
X00765
Y0177
Y01735
Y017
Y01665
Y0163
Y01595
Y0156
Y01525
X008
Y0149
Y01455
Y0142
X00835
Y01455
Y0149
Y01525
Y0156
X008
Y01595
Y0163
Y01665
Y017
Y01735
Y0177
Y01805
X00835
Y0177
Y01735
Y017
Y01665
Y0163
Y01595
X0087
Y0156
Y01525
Y0149
Y01455
Y0142
X00905
Y01455
Y0149
Y01525
Y0156
Y01595
Y0163
X0087
Y01665
Y017
Y01735
Y0177
Y01805
X00905
Y0177
Y01735
Y017
Y01665
X0094
Y0163
Y01595
Y0156
Y01525
Y0149
Y01455
Y0142
Y017
Y01735
Y0177
Y01805
X01565Y01845
Y01885
X01725
Y01845
Y0097
Y0093
Y0089
Y0085
X01565
Y0089
Y0093
Y0097
X00705Y01045
X0066
X0061
X0056
X00495Y00985
X0056Y01205
X0061
X0066
X00705
X00335Y0144
X01995Y01295
X01985Y0113
Y01095
Y0106
Y01025
Y0099
Y00955
Y0092
Y00885
Y0085
X0195
X01915
Y00885
X0195
Y0092
X01915
Y00955
X0195
Y0099
X01915
Y01025
X0195
Y0106
X01915
Y01095
X0195
Y0113
X01915
X0202
Y01095
Y0106
Y01025
Y0099
Y00955
Y0092
Y00885
Y0085
X02055
X0209
X02125
X0216
X02195
X0223
X02265
X023
Y00885
X02265
X0223
X02195
X0216
X02125
X0209
X02055
Y0092
X0209
X02125
X0216
X02195
X0223
X02265
X023
Y00955
X02265
X0223
X02195
X0216
X02125
X0209
X02055
Y0099
X0209
X02125
X0216
X02195
X0223
X02265
X023
Y01025
X02265
X0223
X02195
X0216
X02125
X0209
X02055
Y0106
X0209
X02125
X0216
X02195
X0223
X02265
X023
Y01095
X02265
X0223
X02195
X0216
X02125
X0209
X02055
Y0113
X0209
X02125
X0216
X02195
X0223
X02265
X023
X02475Y009
Y0086
Y0082
Y0078
X02645
Y0082
Y0086
Y009
X0274Y00695
X02285Y00625
X02175Y0066
X02105
X0212Y00345
X0208
X0204
X02
X02095Y0164
X02165
X0215Y0183
X02115
X0208
X02045
X0201
X01975
X0194
X01905
Y01865
X0194
X01975
X0201
X02045
X0208
X02115
X0215
X02185
Y0183
X0222
X02255
X0229
Y01865
X02255
X0222
X0239Y0186
X0243
X0247
X0251
X0271Y0156
X02265Y01505
X02255Y019
X0229
Y01935
X02255
X0222
Y019
X02185
X0215
X02115
X0208
X02045
X0201
X01975
X0194
X01905
Y01935
X0194
X01975
X0201
X02045
X0208
X02115
X0215
X02185
Y0197
X0222
X02255
X0229
Y02005
X02255
X0222
X02185
X0215
Y0197
X02115
X0208
X02045
X0201
X01975
X0194
X01905
Y02005
X0194
X01975
X0201
X02045
X0208
X02115
Y0204
X0215
X02185
X0222
X02255
X0229
Y02075
X02255
X0222
X02185
X0215
X02115
X0208
Y0204
X02045
X0201
X01975
X0194
X01905
Y02075
X0194
X01975
X0201
X02045
Y0211
X0208
X02115
X0215
X02185
X0222
X02255
X0229
X0239Y0202
X0243
X0247
X0251
X02095Y02175
X0206
X02025
X0199
X01975Y0211
X0201
X0194
X01905
X0198456Y0227498
X02085Y02605
X02155Y02595
X02255Y02475
X02245Y028
Y02835
Y0287
Y02905
Y0294
Y02975
Y0301
Y03045
Y0308
X0221
X02175
X0214
X02105
X0207
X02035
X02
X01965
X0193
X01895
Y03045
X0193
X01965
X02
X02035
X0207
X02105
X0214
X02175
X0221
Y0301
X02175
X0214
X02105
X0207
X02035
X02
X01965
X0193
X01895
Y02975
X0193
X01965
X02
X02035
X0207
X02105
X0214
X02175
X0221
Y0294
X02175
X0214
X02105
X0207
X02035
X02
X01965
X0193
X01895
Y02905
X0193
X01965
X02
X02035
X0207
X02105
X0214
X02175
X0221
Y0287
X02175
X0214
X02105
X0207
X02035
X02
X01965
X0193
X01895
Y02835
X0193
X01965
X02
X02035
X0207
X02105
X0214
X02175
X0221
Y028
X02175
X0214
X02105
X0207
X02035
X02
X01965
X0193
X01895
X0228
Y02835
Y0287
Y02905
Y0294
Y02975
Y0301
Y03045
Y0308
X0236Y02995
X024
X0244
X0248
Y0283
X0244
X024
X0236
X02675Y02545
X01705Y02835
Y02875
Y02915
Y02955
X01575
Y02915
Y02875
Y02835
X01565Y01965
Y01925
X01725
Y01965
T02
X00355Y0051
X00655
X03185Y00545
Y00845
Y01605
Y01905
Y02585
Y02885
X00655Y0277
X00355
T03
X03335Y0012
X0012
X03335Y0327
X0012
M30
