G04*
G04 #@! TF.GenerationSoftware,Altium Limited,Altium Designer,21.6.4 (81)*
G04*
G04 Layer_Color=255*
%FSLAX25Y25*%
%MOIN*%
G70*
G04*
G04 #@! TF.SameCoordinates,F1B4013F-C6E7-459F-9AD8-EDA5B4F290C2*
G04*
G04*
G04 #@! TF.FilePolarity,Positive*
G04*
G01*
G75*
%ADD13R,0.15551X0.21260*%
%ADD14R,0.06693X0.07087*%
%ADD15R,0.07100X0.03600*%
G04:AMPARAMS|DCode=16|XSize=88.19mil|YSize=91.34mil|CornerRadius=11.02mil|HoleSize=0mil|Usage=FLASHONLY|Rotation=90.000|XOffset=0mil|YOffset=0mil|HoleType=Round|Shape=RoundedRectangle|*
%AMROUNDEDRECTD16*
21,1,0.08819,0.06929,0,0,90.0*
21,1,0.06614,0.09134,0,0,90.0*
1,1,0.02205,0.03465,0.03307*
1,1,0.02205,0.03465,-0.03307*
1,1,0.02205,-0.03465,-0.03307*
1,1,0.02205,-0.03465,0.03307*
%
%ADD16ROUNDEDRECTD16*%
%ADD17R,0.21260X0.15551*%
%ADD18R,0.07087X0.06693*%
%ADD19R,0.03600X0.07100*%
G04:AMPARAMS|DCode=20|XSize=157.09mil|YSize=83.46mil|CornerRadius=10.43mil|HoleSize=0mil|Usage=FLASHONLY|Rotation=90.000|XOffset=0mil|YOffset=0mil|HoleType=Round|Shape=RoundedRectangle|*
%AMROUNDEDRECTD20*
21,1,0.15709,0.06260,0,0,90.0*
21,1,0.13622,0.08346,0,0,90.0*
1,1,0.02087,0.03130,0.06811*
1,1,0.02087,0.03130,-0.06811*
1,1,0.02087,-0.03130,-0.06811*
1,1,0.02087,-0.03130,0.06811*
%
%ADD20ROUNDEDRECTD20*%
G04:AMPARAMS|DCode=21|XSize=157.09mil|YSize=83.46mil|CornerRadius=10.43mil|HoleSize=0mil|Usage=FLASHONLY|Rotation=180.000|XOffset=0mil|YOffset=0mil|HoleType=Round|Shape=RoundedRectangle|*
%AMROUNDEDRECTD21*
21,1,0.15709,0.06260,0,0,180.0*
21,1,0.13622,0.08346,0,0,180.0*
1,1,0.02087,-0.06811,0.03130*
1,1,0.02087,0.06811,0.03130*
1,1,0.02087,0.06811,-0.03130*
1,1,0.02087,-0.06811,-0.03130*
%
%ADD21ROUNDEDRECTD21*%
%ADD22R,0.09055X0.09921*%
%ADD37R,0.03937X0.13386*%
%ADD38R,0.42126X0.33858*%
%ADD39R,0.13386X0.03937*%
%ADD40R,0.33858X0.42126*%
%ADD45C,0.07874*%
D13*
X240512Y146000D02*
D03*
X279488D02*
D03*
X240512Y243000D02*
D03*
X279488D02*
D03*
X241512Y48500D02*
D03*
X280488D02*
D03*
D14*
X205500Y123429D02*
D03*
Y139571D02*
D03*
X204500Y239071D02*
D03*
Y222929D02*
D03*
X206000Y27429D02*
D03*
Y43571D02*
D03*
D15*
X194000Y129500D02*
D03*
Y140500D02*
D03*
X193500Y238500D02*
D03*
Y227500D02*
D03*
X192500Y32000D02*
D03*
Y43000D02*
D03*
D16*
X63500Y93413D02*
D03*
Y112587D02*
D03*
D17*
X29000Y129488D02*
D03*
Y90512D02*
D03*
D18*
X7429Y163500D02*
D03*
X23571D02*
D03*
D19*
X9500Y177000D02*
D03*
X20500D02*
D03*
D20*
X164000Y289693D02*
D03*
Y256307D02*
D03*
X164500Y190693D02*
D03*
Y157307D02*
D03*
Y57307D02*
D03*
Y90693D02*
D03*
D21*
X245307Y194000D02*
D03*
X278693D02*
D03*
X242307Y291000D02*
D03*
X275693D02*
D03*
X39307Y204000D02*
D03*
X72693D02*
D03*
D22*
X256256Y84500D02*
D03*
X280744D02*
D03*
D37*
X196114Y155500D02*
D03*
X202807D02*
D03*
X209500D02*
D03*
X216193D02*
D03*
X222886D02*
D03*
X223886Y57500D02*
D03*
X217193D02*
D03*
X210500D02*
D03*
X203807D02*
D03*
X197114D02*
D03*
X195114Y252268D02*
D03*
X201807D02*
D03*
X208500D02*
D03*
X215193D02*
D03*
X221886D02*
D03*
D38*
X209500Y197232D02*
D03*
X210500Y99232D02*
D03*
X208500Y294000D02*
D03*
D39*
X38268Y174386D02*
D03*
Y167693D02*
D03*
Y161000D02*
D03*
Y154307D02*
D03*
Y147614D02*
D03*
D40*
X80000Y161000D02*
D03*
D45*
X65500Y51000D02*
D03*
X35500D02*
D03*
X318500Y190500D02*
D03*
Y160500D02*
D03*
X65500Y277000D02*
D03*
X35500D02*
D03*
X318500Y288500D02*
D03*
Y258500D02*
D03*
Y84500D02*
D03*
Y54500D02*
D03*
M02*
